# xmcd CD database file
#
# Track frame offsets:
#	150
#	17705
#	38015
#	53515
#	70785
#	98955
#	114290
#	136267
#	155450
#	176150
#	191062
#
# Disc length: 2879 seconds
#
# Revision: 2
# Processed by: cddbd v1.5.1PL0 Copyright (c) Steve Scherf et al.
# Submitted via: CDex 1.51
#
DISCID=8a0b3d0b
DTITLE=Little River Band - Where We Started From
DYEAR=2000
DGENRE=Easy Listening
TTITLE0=Where We Started From
TTITLE1=This Place
TTITLE2=Magazine Girl
TTITLE3=Just You And I
TTITLE4=Night Owls
TTITLE5=I Think I Left My Heart With You
TTITLE6=Who Made The Moon
TTITLE7=Look In Your Eyes
TTITLE8=American Way
TTITLE9=Lead Me To The Water
TTITLE10=Cool Change
EXTD=YEAR: 2000
EXTT0=
EXTT1=
EXTT2=
EXTT3=
EXTT4=
EXTT5=
EXTT6=
EXTT7=
EXTT8=
EXTT9=
EXTT10=
PLAYORDER=
